<svg xmlns="http://www.w3.org/2000/svg" width="1200" height="340" viewBox="0 0 1200 340" role="img" aria-labelledby="title description">
  <title id="title">Elmer Benitez II</title>
  <desc id="description">Full Stack Developer and Information Technology student</desc>

  <defs>
    <linearGradient id="background" x1="0" y1="0" x2="1" y2="1">
      <stop offset="0" stop-color="#0A1025" />
      <stop offset="0.58" stop-color="#111A3A" />
      <stop offset="1" stop-color="#0A3147" />
    </linearGradient>
    <linearGradient id="accent" x1="0" y1="0" x2="1" y2="0">
      <stop offset="0" stop-color="#42D9F5" />
      <stop offset="1" stop-color="#9B8BFF" />
    </linearGradient>
    <radialGradient id="halo">
      <stop offset="0" stop-color="#2CB5D6" stop-opacity="0.30" />
      <stop offset="1" stop-color="#2CB5D6" stop-opacity="0" />
    </radialGradient>
    <pattern id="grid" width="32" height="32" patternUnits="userSpaceOnUse">
      <path d="M 32 0 L 0 0 0 32" fill="none" stroke="#91B6D9" stroke-opacity="0.075" stroke-width="1" />
    </pattern>
    <clipPath id="rounded">
      <rect width="1200" height="340" rx="22" />
    </clipPath>
  </defs>

  <g clip-path="url(#rounded)">
    <rect width="1200" height="340" fill="url(#background)" />
    <rect width="1200" height="340" fill="url(#grid)" />
    <circle cx="940" cy="168" r="250" fill="url(#halo)" />
    <path d="M 0 338 H 1200" stroke="url(#accent)" stroke-width="4" />

    <rect x="64" y="55" width="156" height="29" rx="14.5" fill="#12344A" stroke="#42D9F5" stroke-opacity="0.55" />
    <text x="142" y="74" text-anchor="middle" fill="#98E9F3" font-family="Segoe UI, Arial, sans-serif" font-size="12" font-weight="700" letter-spacing="2">DEVELOPER PROFILE</text>

    <text x="63" y="165" fill="#F7FBFF" font-family="Segoe UI, Arial, sans-serif" font-size="66" font-weight="750" letter-spacing="-2">Elmer</text>
    <text x="63" y="237" fill="url(#accent)" font-family="Segoe UI, Arial, sans-serif" font-size="66" font-weight="750" letter-spacing="-2">Benitez II</text>
    <rect x="65" y="259" width="44" height="3" rx="1.5" fill="#42D9F5" />
    <text x="65" y="294" fill="#B6C9DD" font-family="Segoe UI, Arial, sans-serif" font-size="20" letter-spacing="0.5">FULL STACK DEVELOPER  /  IT STUDENT</text>

    <circle cx="963" cy="167" r="119" fill="none" stroke="#5ED8EF" stroke-opacity="0.19" stroke-width="1.5" />
    <circle cx="963" cy="167" r="91" fill="none" stroke="#9B8BFF" stroke-opacity="0.32" stroke-width="1.5" />
    <circle cx="963" cy="167" r="66" fill="#102741" stroke="#42D9F5" stroke-opacity="0.7" stroke-width="2" />
    <path d="M 908 166 L 882 166 M 1044 166 L 1071 166 M 963 75 L 963 51 M 963 259 L 963 283" stroke="#73B8D0" stroke-opacity="0.45" stroke-width="2" stroke-linecap="round" />
    <circle cx="963" cy="48" r="5" fill="#42D9F5" />
    <circle cx="1082" cy="168" r="5" fill="#9B8BFF" />
    <circle cx="849" cy="168" r="3" fill="#42D9F5" />
    <circle cx="963" cy="283" r="3" fill="#9B8BFF" />
    <text x="963" y="181" text-anchor="middle" fill="#F7FBFF" font-family="Consolas, Menlo, monospace" font-size="53" font-weight="700">&lt;/&gt;</text>

    <path d="M 786 48 H 835 M 786 48 V 96 M 1114 245 V 293 M 1065 293 H 1114" fill="none" stroke="#42D9F5" stroke-opacity="0.35" stroke-width="2" />
  </g>
</svg>

